# xmcd
#
# Track frame offsets:
#	150
#	17609
#	30177
#	45833
#	64604
#
# Disc length: 1102 seconds
#
# Revision: 1
# Processed by: cddbd v1.5.2PL0 Copyright (c) Steve Scherf et al.
# Submitted via: audiograbber 1.83.01
#
DISCID=28044c05
DTITLE=Prosatanos - Victims of Inquisition
DYEAR=1999
DGENRE=Black
TTITLE0=Witches Sabbat
TTITLE1=Sadist 
TTITLE2=Sorcery of Forbidden Gates
TTITLE3=Clashing Swords
TTITLE4=Victims of Inquisition
EXTD=
EXTT0=
EXTT1=
EXTT2=
EXTT3=
EXTT4=
PLAYORDER=
